<?xml version="1.0" standalone="no"?>
<!DOCTYPE svg PUBLIC "-//W3C//DTD SVG 20010904//EN"
 "http://www.w3.org/TR/2001/REC-SVG-20010904/DTD/svg10.dtd">
<svg version="1.0" xmlns="http://www.w3.org/2000/svg"
 width="300.000000pt" height="300.000000pt" viewBox="0 0 300.000000 300.000000"
 preserveAspectRatio="xMidYMid meet">
<metadata>
Created by potrace 1.10, written by Peter Selinger 2001-2011
</metadata>
<g transform="translate(0.000000,300.000000) scale(0.100000,-0.100000)"
fill="#000000" stroke="none">
<path d="M975 2257 c-461 -457 -508 -507 -508 -536 0 -37 16 -57 56 -67 27 -6
53 18 503 467 l474 474 468 -468 c257 -257 478 -470 490 -474 35 -9 77 26 77
64 0 27 -61 92 -503 537 -379 382 -508 506 -526 506 -17 0 -150 -126 -531
-503z m1037 -27 c268 -269 488 -496 488 -504 0 -20 -17 -29 -43 -22 -12 3
-220 204 -462 446 -242 243 -453 448 -468 456 -25 13 -31 14 -51 1 -12 -8
-224 -216 -471 -461 -379 -378 -452 -447 -473 -444 -14 2 -27 9 -30 17 -6 19
978 1001 1003 1001 12 0 203 -185 507 -490z"/>
<path d="M1473 2147 c-12 -7 -177 -170 -367 -364 l-346 -351 2 -478 3 -478 25
-13 c19 -10 179 -13 718 -13 l693 0 24 25 25 24 0 456 c0 376 -3 461 -14 483
-21 38 -709 722 -726 722 -8 -1 -25 -6 -37 -13z m389 -375 l348 -348 0 -456
c0 -404 -2 -457 -16 -469 -13 -10 -149 -13 -696 -13 -641 -1 -680 0 -693 17
-10 14 -13 111 -13 453 -1 240 3 446 8 458 11 31 681 706 700 706 8 0 171
-157 362 -348z"/>
<path d="M1474 2006 c-14 -10 -508 -503 -602 -602 -11 -11 -15 -96 -18 -390
-5 -397 -2 -431 39 -453 17 -9 171 -11 619 -9 558 3 598 4 615 21 17 16 18 48
20 400 1 210 0 392 -3 404 -6 24 -560 591 -609 623 -36 24 -35 24 -61 6z m334
-319 l303 -303 0 -397 0 -397 -610 -3 -611 -2 0 395 0 395 301 308 c165 169
304 307 307 307 4 0 143 -136 310 -303z"/>
<path d="M1250 1255 l0 -105 110 0 110 0 0 105 0 105 -110 0 -110 0 0 -105z
m175 -5 l0 -65 -65 0 -65 0 -3 54 c-5 80 -2 82 70 79 l63 -3 0 -65z"/>
<path d="M1539 1358 c0 -2 -1 -49 -2 -106 l-2 -102 108 0 107 0 0 105 0 105
-105 0 c-58 0 -105 -1 -106 -2z m167 -103 c1 -34 -3 -63 -10 -67 -18 -12 -101
-9 -114 4 -13 13 -17 110 -5 122 4 4 34 6 68 4 l60 -3 1 -60z"/>
<path d="M1250 970 l0 -110 110 0 110 0 0 110 0 110 -110 0 -110 0 0 -110z
m175 0 l0 -65 -65 0 -65 0 -3 54 c-5 80 -2 82 70 79 l63 -3 0 -65z"/>
<path d="M1539 1075 c0 -3 0 -51 -1 -107 l0 -103 106 -3 106 -3 0 111 0 110
-105 0 c-58 0 -105 -2 -106 -5z m161 -41 c6 -6 10 -36 8 -70 l-3 -59 -65 0
-65 0 0 65 c0 64 0 65 29 70 48 8 84 6 96 -6z"/>
</g>
</svg>
